<svg width="510" height="566" viewBox="0 0 510 566" fill="none" xmlns="http://www.w3.org/2000/svg">
<path d="M454.002 405.939C474.409 423.028 485.969 448.55 505.963 465.293" stroke="#FFC2A8" stroke-width="4.5" stroke-linecap="round"/>
<path d="M324.737 391.514C328.369 447.164 335.297 507.662 324.155 563.013" stroke="#FFC2A8" stroke-width="4.5" stroke-linecap="round"/>
<path d="M427.612 150.705C432.675 136.046 445.337 121.885 453.718 108.765C471.763 80.5207 488.912 51.7942 506.873 23.5005" stroke="#FFC2A8" stroke-width="4.5" stroke-linecap="round"/>
<path d="M289.752 3L294.882 135.426" stroke="#FFC2A8" stroke-width="4.5" stroke-linecap="round"/>
<path d="M68.5 510.767C78.6936 510.767 91.0029 518.156 101.069 522.151C114.36 527.425 125.537 529.124 138.382 520.204C157.862 506.676 161.876 465.357 139.353 451.454C136.482 449.682 115.44 440.451 115.088 448.758C114.43 464.295 121.571 470.708 129.539 479.763C147.637 500.328 171.512 489.019 185.941 468.978C197.217 453.317 206.555 433.815 213.118 413.559C215.962 404.78 219.912 392.461 219.912 382.704C219.912 371.306 217.004 379.764 214.088 384.052C209.665 390.557 204.525 397.285 200.5 404.273C198.585 407.597 196.153 414.378 193.598 416.405C188.218 420.675 197.087 412.748 198.559 411.612C204.402 407.104 220.249 394.749 221.745 385.4C222.238 382.322 218.869 373.621 218.078 377.462C217.047 382.478 217.971 389.616 217.971 394.837C217.971 410.36 222.332 443.699 233.5 451.454" stroke="#FFC2A8" stroke-width="4.5" stroke-linecap="round"/>
<path d="M12.6778 165.584C9.46007 141.378 15.1386 118.668 25.6241 96.5943C30.4123 86.5142 35.5751 76.3737 45.7937 70.9868C54.5405 66.3757 66.3581 66.0931 76.0052 64.9208C105.437 61.3445 116.417 107.484 100.299 126.748C96.797 130.934 87.5905 133.682 84.8463 127.777C79.9453 117.232 90.5492 107.449 98.1679 101.786C109.869 93.087 127.749 89.1518 141.189 95.0957C167.278 106.633 172.807 135.726 176.21 161.323" stroke="#FFC2A8" stroke-width="4.5" stroke-linecap="round"/>
<path d="M161.5 141C161.876 144.384 166.846 149.34 168.452 152.551C170.157 155.961 171.48 160.454 173.799 163.352C175.632 165.643 176.556 172.518 179.039 165.812C181.698 158.633 185.499 152.337 189.413 145.813" stroke="#FFC2A8" stroke-width="4.5" stroke-linecap="round"/>
</svg>
