<svg width="364" height="384" viewBox="0 0 364 384" fill="none" xmlns="http://www.w3.org/2000/svg">
<path d="M155.729 3.20084C175.099 3.20084 193.69 -4.44596 200.858 20.7998C205.805 38.2217 205.454 56.9788 190.316 69.3275C180.945 76.9724 167.789 74.3435 165.835 61.5735C162.463 39.5458 188.592 31.9459 205.737 33.3455C215.833 34.1696 218.937 50.2391 219.677 58.0886C222.387 86.8171 207.168 108.896 194.934 133.363" stroke="#FFC2A8" stroke-width="3" stroke-linecap="round"/>
<path d="M191.796 103.567C191.796 110.246 191.796 116.926 191.796 123.605C191.796 126.366 189.419 135.301 190.402 137.022C193.518 142.475 214.181 113.878 216.888 112.976" stroke="#FFC2A8" stroke-width="3" stroke-linecap="round"/>
<path d="M273.949 112.251C277.043 96.7825 302.381 77.582 312.499 65.4412" stroke="#FFC2A8" stroke-width="3" stroke-linecap="round"/>
<path d="M89.4638 271.956C73.306 292.961 67.2095 320.978 53.668 343.547" stroke="#FFC2A8" stroke-width="3" stroke-linecap="round"/>
<path d="M163.809 269.202V382.097" stroke="#FFC2A8" stroke-width="3" stroke-linecap="round"/>
<path d="M235.4 271.956C235.4 263.27 243.76 287.311 249.321 293.984C259.864 306.636 270.324 318.834 279.457 332.533" stroke="#FFC2A8" stroke-width="3" stroke-linecap="round"/>
<path d="M34.1875 54.0288C34.6732 55.7772 35.7829 57.4873 36.6678 59.0314C40.3947 65.5348 44.6172 71.7736 48.8588 77.9486C55.9268 88.238 64.0119 97.695 70.8028 108.174C72.9013 111.412 75.2201 114.513 77.2977 117.759C77.8153 118.568 78.3635 119.816 79.2105 120.239" stroke="#FFC2A8" stroke-width="3" stroke-linecap="round"/>
<path d="M313 185H361.539" stroke="#FFC2A8" stroke-width="3" stroke-linecap="round"/>
<path d="M2 185H49" stroke="#FFC2A8" stroke-width="3" stroke-linecap="round"/>
</svg>
