<svg xmlns="http://www.w3.org/2000/svg" fill="none" viewBox="0 0 326 76"><path fill="#000" d="M1.95 65.22c-.43-1-.77-2.28-1.01-3.81a39.59 39.59 0 0 1-.29-9.58c.2-1.53.46-2.8.8-3.81a6.3 6.3 0 0 0 2.08-1.44 8.23 8.23 0 0 0 1.8-3.39c.48-1.58.72-3.79.72-6.62 0-3.07-.29-5.38-.86-6.91-.53-1.59-1.18-2.64-1.95-3.17-.72-.58-1.36-.87-1.94-.87a11.5 11.5 0 0 1-.94-3.52c-.19-1.5-.28-3.08-.28-4.76.04-1.72.19-3.38.43-4.96.24-1.64.6-3.03 1.08-4.18 3.55.14 6.74.17 9.57.07 2.88-.1 5.74-.24 8.57-.43 2.88-.2 6-.36 9.36-.5 3.41-.2 7.42-.3 12.03-.3 6.76 0 12.48.6 17.13 1.8 4.66 1.16 8.19 3.3 10.59 6.42 2.44 3.07 3.67 7.46 3.67 13.17 0 4.95-.94 8.9-2.81 11.88a15.63 15.63 0 0 1-7.92 6.48c-3.46 1.3-7.6 1.95-12.46 1.95a29.9 29.9 0 0 1-7.34-.72 10.63 10.63 0 0 1-5.04-3.46l-1.51 1.37a12.85 12.85 0 0 0 4.53 3.45c1.78.77 3.99 1.2 6.63 1.3.43 1.34.7 2.88.79 4.6.14 1.74.1 3.46-.14 5.2-.2 1.72-.56 3.28-1.08 4.67-2.36-.19-5.62-.43-9.8-.72-4.12-.29-8.85-.4-14.18-.36-2.69 0-5.33.07-7.92.22-2.6.14-4.97.29-7.13.43-2.11.2-3.84.36-5.18.5Zm33.48-31.75h4.39v-4.82h-4.4v4.82Zm61.23 32.98c-5.76 0-10.32-.75-13.68-2.23-3.31-1.5-5.69-3.44-7.13-5.84a14.84 14.84 0 0 1-2.16-7.77c0-4.23 1.49-7.66 4.46-10.3 2.98-2.64 7.73-3.98 14.26-4.03l15.26-.14v-3.82h-3.96v1.94l-14.47.58c-4.75.2-9.48.12-14.18-.22a60.03 60.03 0 0 1 .36-21.74 323.2 323.2 0 0 1 11.38.29 7012.33 7012.33 0 0 1 12.38.29 13 13 0 0 0-1.08 4.32 11.2 11.2 0 0 0 .65 4.17c.24-3.98 1.75-6.74 4.53-8.28 2.79-1.53 6.72-2.3 11.81-2.3 6.58 0 11.62.96 15.12 2.88a13.84 13.84 0 0 1 6.98 8.42c.58 1.78.82 3.7.72 5.76a56.26 56.26 0 0 1-.43 5.9 42.2 42.2 0 0 0-.36 5.19c0 2.93.46 5.02 1.37 6.26.96 1.2 1.97 2 3.02 2.38.44 1.4.68 3.14.72 5.26.1 2.1.05 4.22-.14 6.33a27.8 27.8 0 0 1-1 5.47c-2.12.48-4.33.8-6.63.94-2.3.2-4.18.29-5.62.29-3.65 0-6.5-.43-8.57-1.3-2.06-.86-3.1-2.45-3.1-4.75 0-.82.15-1.68.44-2.6.34-.9.72-1.89 1.15-2.94l-1.87-.94a24.56 24.56 0 0 1-3.6 6.05 15.94 15.94 0 0 1-6.26 4.68c-2.64 1.2-6.1 1.8-10.37 1.8Zm7.05-21.1h3.96v-4.53h-3.96v4.53Zm77.32 29.67c-3.31-.39-6.34-.68-9.07-.87-2.7-.14-5.36-.21-8-.21-2.2 0-4.5.02-6.9.07-2.4.1-4.71.21-6.92.36-2.2.14-4.15.31-5.83.5a19.8 19.8 0 0 1-1.08-5.33 48.65 48.65 0 0 1 0-6.48c.14-2.2.45-4.1.93-5.68.58-.3 1.2-.8 1.88-1.52.72-.72 1.31-1.92 1.8-3.6.52-1.68.79-4.03.79-7.05 0-3.17-.15-5.74-.44-7.7a17.54 17.54 0 0 0-1.15-4.54 5.39 5.39 0 0 0-1.36-2.16c-.44-.39-.82-.6-1.16-.65a28.11 28.11 0 0 1-1-5.62c-.15-2.2-.13-4.39.07-6.55.24-2.16.65-3.93 1.22-5.33 1.54.2 3.1.36 4.68.5 1.63.15 3.07.27 4.32.37 1.25.05 2.02.07 2.3.07 2.98 0 5.9-.02 8.79-.07 2.88-.1 5.25-.2 7.13-.29a12.1 12.1 0 0 0-1.88 2.95c-.57 1.3-1 2.62-1.3 3.96a8.3 8.3 0 0 0-.13 3.39 17.05 17.05 0 0 1 9.72-10.16c2.73-1.24 6.16-1.87 10.3-1.87 5.32 0 9.83 1.1 13.53 3.31a20.78 20.78 0 0 1 8.35 9.44c1.92 4.08 2.88 8.92 2.88 14.54 0 8.69-1.8 15.48-5.4 20.38-3.6 4.84-9.03 7.27-16.27 7.27a25.4 25.4 0 0 1-8.07-1.15 20.02 20.02 0 0 1-5.9-2.96 29.69 29.69 0 0 1-4.6-4.24l-1.6 1.44a35.08 35.08 0 0 0 4.54 4.17 22.97 22.97 0 0 0 5.55 3.1c.1 3.65-.15 6.38-.72 8.2Zm-2.96-32.76h3.9v-6.7h-3.9v6.7ZM237 66.45c-5.76 0-10.32-.75-13.68-2.23-3.31-1.5-5.69-3.44-7.13-5.84a14.84 14.84 0 0 1-2.16-7.77c0-4.23 1.5-7.66 4.47-10.3 2.97-2.64 7.73-3.98 14.25-4.03l15.27-.14v-3.82h-3.96v1.94l-14.47.58c-4.76.2-9.48.12-14.19-.22a60.03 60.03 0 0 1 .36-21.74 323.2 323.2 0 0 1 11.38.29 7012.33 7012.33 0 0 1 12.38.29 13 13 0 0 0-1.08 4.32 11.2 11.2 0 0 0 .65 4.17c.24-3.98 1.75-6.74 4.54-8.28 2.78-1.53 6.72-2.3 11.8-2.3 6.58 0 11.62.96 15.12 2.88a13.84 13.84 0 0 1 6.99 8.42c.57 1.78.81 3.7.72 5.76-.05 2.02-.2 3.99-.43 5.9a42.2 42.2 0 0 0-.36 5.19c0 2.93.45 5.02 1.36 6.26.96 1.2 1.97 2 3.03 2.38.43 1.4.67 3.14.72 5.26.1 2.1.05 4.22-.15 6.33a26.4 26.4 0 0 1-1 5.47c-2.12.48-4.32.8-6.63.94-2.3.2-4.17.29-5.61.29-3.65 0-6.5-.43-8.57-1.3-2.07-.86-3.1-2.45-3.1-4.75 0-.82.15-1.68.43-2.6.34-.9.72-1.89 1.16-2.94l-1.88-.94a24.56 24.56 0 0 1-3.6 6.05 15.94 15.94 0 0 1-6.26 4.68c-2.64 1.2-6.1 1.8-10.37 1.8Zm7.06-21.1h3.96v-4.53h-3.96v4.53Zm41.45 19.87c-.38-.96-.7-2.18-.93-3.67a38.34 38.34 0 0 1-.43-4.82c0-1.68.05-3.27.14-4.75.14-1.54.38-2.79.72-3.75a6.8 6.8 0 0 0 2.09-1.37 6.8 6.8 0 0 0 1.65-2.8c.49-1.25.73-2.96.73-5.12 0-2.1-.3-3.74-.87-4.9a6.25 6.25 0 0 0-1.87-2.58 9.05 9.05 0 0 0-1.73-1.23c-.43-.81-.74-1.97-.94-3.45-.19-1.54-.28-3.2-.28-4.97.04-1.78.19-3.48.43-5.11.24-1.64.6-2.98 1.08-4.04.53.05.98.12 1.37.22.38.05.81.1 1.3.14-.2 2.98.4 5.55 1.8 7.7a11.55 11.55 0 0 0 5.68 4.54c2.45.92 5.04 1.1 7.78.58-2.3-.1-4.44-.7-6.41-1.8a14.1 14.1 0 0 1-4.68-4.54 12.22 12.22 0 0 1-1.73-6.4c0-1.97.46-3.87 1.37-5.7.96-1.86 2.54-3.4 4.75-4.6 2.2-1.25 5.19-1.87 8.93-1.87 6 0 10.37 1.51 13.1 4.53 2.79 2.98 4.18 7.4 4.18 13.25 0 2.74-.24 5.26-.72 7.56-.43 2.26-.89 4.44-1.37 6.55a30.85 30.85 0 0 0-.65 6.34c0 2.06.22 3.72.65 4.97a7.41 7.41 0 0 0 1.73 2.8 9.2 9.2 0 0 0 2.09 1.3c.33.96.55 2.21.64 3.75.15 1.48.2 3.07.15 4.75 0 1.68-.12 3.29-.36 4.82a17.62 17.62 0 0 1-.94 3.67c-1.34-.14-3.1-.3-5.25-.5a666.3 666.3 0 0 0-6.91-.43 194.81 194.81 0 0 0-14.55 0c-2.35.14-4.56.29-6.62.43l-5.12.5Z"/></svg>