<svg xmlns="http://www.w3.org/2000/svg" fill="none" viewBox="0 0 272 63"><path fill="#FF6C44" d="M2.04 54.02c-.36-.84-.64-1.9-.84-3.18a31.66 31.66 0 0 1-.24-7.98c.16-1.28.38-2.34.66-3.18.6-.24 1.18-.64 1.74-1.2.6-.6 1.1-1.54 1.5-2.82.4-1.32.6-3.16.6-5.52 0-2.56-.24-4.48-.72-5.76-.44-1.32-.98-2.2-1.62-2.64-.6-.48-1.14-.72-1.62-.72a9.39 9.39 0 0 1-.78-2.94 30.98 30.98 0 0 1-.24-3.96c.04-1.44.16-2.82.36-4.14.2-1.36.5-2.52.9-3.48 2.96.12 5.62.14 7.98.06a208 208 0 0 0 7.14-.36c2.4-.16 5-.3 7.8-.42 2.84-.16 6.18-.24 10.02-.24 5.64 0 10.4.5 14.28 1.5 3.88.96 6.82 2.74 8.82 5.34 2.04 2.56 3.06 6.22 3.06 10.98 0 4.12-.78 7.42-2.34 9.9a13.02 13.02 0 0 1-6.6 5.4c-2.88 1.08-6.34 1.62-10.38 1.62-2.56 0-4.6-.2-6.12-.6a8.86 8.86 0 0 1-4.2-2.88l-1.26 1.14a10.7 10.7 0 0 0 3.78 2.88c1.48.64 3.32 1 5.52 1.08.36 1.12.58 2.4.66 3.84.12 1.44.08 2.88-.12 4.32a15.94 15.94 0 0 1-.9 3.9c-1.96-.16-4.68-.36-8.16-.6a152.1 152.1 0 0 0-11.82-.3c-2.24 0-4.44.06-6.6.18-2.16.12-4.14.24-5.94.36-1.76.16-3.2.3-4.32.42Zm27.9-26.46h3.66v-4.02h-3.66v4.02Zm51.02 27.48c-4.8 0-8.6-.62-11.4-1.86-2.76-1.24-4.74-2.86-5.94-4.86-1.2-2-1.8-4.16-1.8-6.48 0-3.52 1.24-6.38 3.72-8.58 2.48-2.2 6.44-3.32 11.88-3.36l12.72-.12V26.6h-3.3v1.62l-12.06.48c-3.96.16-7.9.1-11.82-.18-1-6.24-.9-12.28.3-18.12a269.34 269.34 0 0 1 9.48.24 5843.61 5843.61 0 0 1 10.32.24c-.52 1.2-.82 2.4-.9 3.6-.04 1.2.14 2.36.54 3.48.2-3.32 1.46-5.62 3.78-6.9 2.32-1.28 5.6-1.92 9.84-1.92 5.49 0 9.69.8 12.6 2.4a11.54 11.54 0 0 1 5.83 7.02c.47 1.48.67 3.08.6 4.8a49.07 49.07 0 0 1-.36 4.92c-.2 1.6-.3 3.04-.3 4.32 0 2.44.38 4.18 1.14 5.22.8 1 1.64 1.66 2.52 1.98.36 1.16.56 2.62.6 4.38a38.8 38.8 0 0 1-.13 5.28 22.14 22.14 0 0 1-.83 4.56c-1.77.4-3.6.66-5.52.78-1.92.16-3.48.24-4.69.24-3.03 0-5.42-.36-7.14-1.08-1.72-.72-2.58-2.04-2.58-3.96 0-.68.12-1.4.36-2.16.28-.76.6-1.58.96-2.46l-1.56-.78a20.46 20.46 0 0 1-3 5.04 13.28 13.28 0 0 1-5.22 3.9c-2.2 1-5.08 1.5-8.64 1.5Zm5.88-17.58h3.3v-3.78h-3.3v3.78Zm64.43 24.72a168.6 168.6 0 0 0-7.56-.72c-2.24-.12-4.46-.18-6.66-.18-1.84 0-3.76.02-5.76.06-2 .08-3.92.18-5.76.3-1.84.12-3.46.26-4.86.42a16.96 16.96 0 0 1-.9-4.44c-.12-1.8-.12-3.6 0-5.4.12-1.84.38-3.42.78-4.74.48-.24 1-.66 1.56-1.26.6-.6 1.1-1.6 1.5-3 .44-1.4.66-3.36.66-5.88 0-2.64-.12-4.78-.36-6.42-.24-1.64-.56-2.9-.96-3.78a4.49 4.49 0 0 0-1.14-1.8c-.36-.32-.68-.5-.96-.54-.4-1.32-.68-2.88-.84-4.68a35.5 35.5 0 0 1 .06-5.46c.2-1.8.54-3.28 1.02-4.44 1.28.16 2.58.3 3.9.42l3.6.3 1.92.06c2.48 0 4.92-.02 7.32-.06 2.4-.08 4.38-.16 5.94-.24-.52.56-1.04 1.38-1.56 2.46a16.75 16.75 0 0 0-1.08 3.3 6.91 6.91 0 0 0-.12 2.82 14.2 14.2 0 0 1 8.1-8.46c2.28-1.04 5.14-1.56 8.58-1.56 4.44 0 8.2.92 11.28 2.76a17.32 17.32 0 0 1 6.96 7.86c1.6 3.4 2.4 7.44 2.4 12.12 0 7.24-1.5 12.9-4.5 16.98-3 4.04-7.52 6.06-13.56 6.06-2.6 0-4.84-.32-6.72-.96a16.68 16.68 0 0 1-4.92-2.46 24.74 24.74 0 0 1-3.84-3.54l-1.32 1.2a28.26 28.26 0 0 0 3.78 3.48c1.36 1.04 2.9 1.9 4.62 2.58.08 3.04-.12 5.32-.6 6.84Zm-2.46-27.3h3.24V29.3h-3.24v5.58Zm49.1 20.16c-4.8 0-8.6-.62-11.4-1.86-2.75-1.24-4.73-2.86-5.93-4.86-1.2-2-1.8-4.16-1.8-6.48 0-3.52 1.24-6.38 3.72-8.58 2.48-2.2 6.44-3.32 11.88-3.36l12.72-.12V26.6h-3.3v1.62l-12.06.48c-3.96.16-7.9.1-11.82-.18-1-6.24-.9-12.28.3-18.12a269.34 269.34 0 0 1 9.48.24 5843.61 5843.61 0 0 1 10.32.24c-.52 1.2-.82 2.4-.9 3.6-.04 1.2.14 2.36.54 3.48.2-3.32 1.46-5.62 3.78-6.9 2.32-1.28 5.6-1.92 9.84-1.92 5.48 0 9.68.8 12.6 2.4a11.54 11.54 0 0 1 5.82 7.02c.48 1.48.68 3.08.6 4.8a49.07 49.07 0 0 1-.36 4.92c-.2 1.6-.3 3.04-.3 4.32 0 2.44.38 4.18 1.14 5.22.8 1 1.64 1.66 2.52 1.98.36 1.16.56 2.62.6 4.38a38.8 38.8 0 0 1-.12 5.28 22.14 22.14 0 0 1-.84 4.56c-1.76.4-3.6.66-5.52.78-1.92.16-3.48.24-4.68.24-3.04 0-5.42-.36-7.14-1.08-1.72-.72-2.58-2.04-2.58-3.96 0-.68.12-1.4.36-2.16.28-.76.6-1.58.96-2.46l-1.56-.78a20.46 20.46 0 0 1-3 5.04 13.28 13.28 0 0 1-5.22 3.9c-2.2 1-5.08 1.5-8.64 1.5Zm5.89-17.58h3.3v-3.78h-3.3v3.78Zm34.55 16.56c-.32-.8-.58-1.82-.78-3.06a31.95 31.95 0 0 1-.24-7.98c.12-1.28.32-2.32.6-3.12.6-.24 1.18-.62 1.74-1.14a5.67 5.67 0 0 0 1.38-2.34c.4-1.04.6-2.46.6-4.26 0-1.76-.24-3.12-.72-4.08a5.2 5.2 0 0 0-1.56-2.16 7.54 7.54 0 0 0-1.44-1.02 8.68 8.68 0 0 1-.78-2.88 33.46 33.46 0 0 1-.24-4.14c.04-1.48.16-2.9.36-4.26.2-1.36.5-2.48.9-3.36.44.04.82.1 1.14.18l1.08.12c-.16 2.48.34 4.62 1.5 6.42a9.63 9.63 0 0 0 4.74 3.78c2.04.76 4.2.92 6.48.48-1.92-.08-3.7-.58-5.34-1.5-1.6-.96-2.9-2.22-3.9-3.78a10.47 10.47 0 0 1-.3-10.08A9.2 9.2 0 0 1 247.53 2c1.84-1.04 4.32-1.56 7.44-1.56 5 0 8.64 1.26 10.92 3.78 2.32 2.48 3.48 6.16 3.48 11.04 0 2.28-.2 4.38-.6 6.3-.36 1.88-.74 3.7-1.14 5.46a25.7 25.7 0 0 0-.54 5.28c0 1.72.18 3.1.54 4.14.4 1.04.88 1.82 1.44 2.34.6.48 1.18.84 1.74 1.08.28.8.46 1.84.54 3.12.12 1.24.16 2.56.12 3.96 0 1.4-.1 2.74-.3 4.02-.2 1.24-.46 2.26-.78 3.06-1.12-.12-2.58-.26-4.38-.42l-5.76-.36a162.35 162.35 0 0 0-12.12 0l-5.52.36-4.26.42Z"/></svg>