<svg width="148" height="48" viewBox="0 0 148 48" fill="none" xmlns="http://www.w3.org/2000/svg">
<g clip-path="url(#clip0_9903_1528)">
<path d="M9.5 48H8.37C7.57579 47.9828 6.78381 47.9092 6 47.78C5.27735 47.6502 4.57694 47.4179 3.92 47.09C3.27085 46.7615 2.67974 46.3291 2.17 45.81C1.658 45.2988 1.23245 44.7077 0.91 44.06C0.579878 43.4119 0.350573 42.7173 0.23 42C0.092401 41.2171 0.0155054 40.4247 0 39.63C0 39.37 0 38.48 0 38.48V9.5C0 9.5 0 8.63 0 8.38C0.0145448 7.58189 0.0914456 6.78613 0.23 6C0.353095 5.28337 0.582278 4.58908 0.91 3.94C1.23845 3.29337 1.66707 2.70275 2.18 2.19C2.69762 1.67296 3.29112 1.23795 3.94 0.9C4.58808 0.569878 5.28274 0.340573 6 0.22C6.78309 0.0852755 7.57549 0.01172 8.37 0L9.5 0H138.5H139.65C140.431 0.00657391 141.21 0.0734395 141.98 0.2C142.711 0.323565 143.418 0.556159 144.08 0.89C145.366 1.55558 146.414 2.60374 147.08 3.89C147.398 4.55794 147.617 5.26878 147.73 6C147.875 6.78612 147.965 7.58137 148 8.38V9.5C148 9.97 148 10.42 148 10.87V37.13C148 37.58 148 38.03 148 38.48V39.64C147.982 40.4209 147.908 41.1995 147.78 41.97C147.559 43.4232 146.875 44.7664 145.83 45.8C145.298 46.3309 144.679 46.7672 144 47.09C143.341 47.4209 142.637 47.6533 141.91 47.78C141.136 47.9016 140.354 47.9684 139.57 47.98H138.44H9.5V48Z" fill="black"/>
<path d="M39.1494 23.88C39.1624 23.0122 39.3936 22.1616 39.8217 21.4066C40.2499 20.6516 40.8613 20.0166 41.5994 19.56C41.1232 18.9086 40.5041 18.3749 39.7894 18C39.0679 17.6138 38.2674 17.3983 37.4494 17.37C35.6994 17.19 34.0094 18.42 33.1194 18.42C32.2294 18.42 30.8394 17.42 29.3594 17.42C28.404 17.4468 27.4722 17.723 26.6565 18.2212C25.8408 18.7194 25.1695 19.4222 24.7094 20.26C22.7094 23.74 24.1994 28.86 26.1294 31.67C27.1294 33.05 28.2194 34.59 29.6894 34.53C31.1594 34.47 31.6894 33.61 33.4094 33.61C35.1294 33.61 35.6494 34.53 37.1494 34.5C38.6494 34.47 39.6694 33.11 40.5994 31.72C41.2932 30.7407 41.8266 29.6572 42.1794 28.51C41.2835 28.1275 40.5207 27.4886 39.9869 26.6737C39.4531 25.8587 39.1722 24.9042 39.1794 23.93L39.1494 23.88Z" fill="white"/>
<path d="M36.2995 15.4698C37.1502 14.4604 37.5672 13.1555 37.4595 11.8398C36.1709 11.9753 34.9812 12.5933 34.1295 13.5698C33.286 14.5295 32.858 15.7848 32.9395 17.0598C33.5831 17.0645 34.2194 16.9239 34.8012 16.6487C35.3829 16.3734 35.8951 15.9704 36.2995 15.4698Z" fill="white"/>
<path d="M56.4501 31.1298H51.7201L50.5801 34.4898H48.5801L53.0601 22.0698H55.1401L59.6201 34.4898H57.6201L56.4501 31.1298ZM52.2101 29.5798H56.0001L54.1501 24.1398L52.2101 29.5798Z" fill="white"/>
<path d="M69.3093 30C69.3093 32.82 67.7993 34.62 65.5293 34.62C64.9542 34.6544 64.3814 34.5225 63.8793 34.24C63.3748 33.9603 62.959 33.5445 62.6793 33.04V37.52H60.7793V25.52H62.5793V27.02C62.8722 26.5188 63.2933 26.1046 63.7993 25.82C64.3097 25.5384 64.8867 25.4002 65.4693 25.42C67.7893 25.34 69.3093 27.16 69.3093 30ZM67.3993 30C67.3993 28.17 66.3993 27 64.9993 27C63.5993 27 62.6293 28.24 62.6293 30C62.6293 31.76 63.5793 33 64.9993 33C66.4193 33 67.3993 31.8 67.3993 30Z" fill="white"/>
<path d="M79.2702 30.0002C79.2702 32.8202 77.7702 34.6202 75.4902 34.6202C74.9156 34.6497 74.3441 34.5181 73.8402 34.2402C73.3329 33.9495 72.9198 33.5191 72.6502 33.0002H72.6002V37.4802H70.7402V25.4802H72.5402V26.9802C72.8301 26.4774 73.2512 26.063 73.7585 25.7811C74.2658 25.4993 74.8402 25.3607 75.4202 25.3802C77.7602 25.3402 79.2702 27.1602 79.2702 30.0002ZM77.3602 30.0002C77.3602 28.1702 76.4202 27.0002 74.9702 27.0002C73.5202 27.0002 72.5902 28.2402 72.5902 30.0002C72.5902 31.7602 73.5902 33.0002 74.9702 33.0002C76.3502 33.0002 77.3602 31.8102 77.3602 30.0002Z" fill="white"/>
<path d="M85.8609 31C86.0009 32.23 87.1909 33 88.8609 33C90.5309 33 91.5509 32.19 91.5509 31.08C91.5509 30.08 90.8709 29.54 89.2609 29.14L87.6509 28.76C85.3709 28.21 84.3109 27.14 84.3109 25.41C84.3109 23.27 86.1809 21.79 88.8309 21.79C91.4809 21.79 93.2509 23.27 93.3109 25.41H91.4109C91.3009 24.17 90.2709 23.41 88.7709 23.41C87.2709 23.41 86.2509 24.17 86.2509 25.27C86.2509 26.15 86.9109 26.66 88.5109 27.06L89.8809 27.4C92.4209 28 93.4809 29.02 93.4809 30.84C93.4809 33.16 91.6309 34.62 88.6909 34.62C85.9409 34.62 84.0809 33.2 83.9609 30.95L85.8609 31Z" fill="white"/>
<path d="M97.4905 23.29V25.44H99.2206V26.91H97.4905V31.91C97.4905 32.68 97.8405 33.04 98.6005 33.04C98.8036 33.0546 99.0075 33.0546 99.2105 33.04V34.5C98.8816 34.5673 98.5462 34.5975 98.2105 34.59C96.3705 34.59 95.6606 33.9 95.6606 32.15V26.91H94.3105V25.44H95.6305V23.29H97.4905Z" fill="white"/>
<path d="M100.211 29.9999C100.211 27.1499 101.891 25.3599 104.511 25.3599C107.131 25.3599 108.801 27.1499 108.801 29.9999C108.801 32.8499 107.141 34.6399 104.511 34.6399C101.881 34.6399 100.211 32.8199 100.211 29.9999ZM106.911 29.9999C106.911 28.0499 106.011 26.8999 104.511 26.8999C103.011 26.8999 102.111 28.0599 102.111 29.9999C102.111 31.9399 103.001 33.1099 104.511 33.1099C106.021 33.1099 106.911 31.9599 106.911 29.9999Z" fill="white"/>
<path d="M110.329 25.4401H112.109V27.0001C112.229 26.517 112.511 26.0898 112.909 25.7901C113.304 25.4896 113.793 25.3374 114.289 25.3601C114.501 25.3587 114.713 25.3821 114.919 25.4301V27.1701C114.65 27.0889 114.37 27.0517 114.089 27.0601C113.819 27.0464 113.548 27.0943 113.299 27.2001C113.048 27.2979 112.822 27.4518 112.639 27.6501C112.46 27.8518 112.32 28.086 112.229 28.3401C112.149 28.5986 112.121 28.8708 112.149 29.1401V34.5101H110.289L110.329 25.4401Z" fill="white"/>
<path d="M123.529 31.8298C123.279 33.4698 121.679 34.5998 119.629 34.5998C116.999 34.5998 115.359 32.8398 115.359 30.0098C115.359 27.1798 117.009 25.3198 119.559 25.3198C122.109 25.3198 123.639 27.0398 123.639 29.7898V30.4298H117.239V30.5398C117.209 30.8729 117.251 31.2085 117.361 31.5242C117.471 31.8399 117.648 32.1282 117.879 32.3698C118.111 32.6107 118.391 32.8013 118.699 32.9298C119.015 33.064 119.357 33.1222 119.699 33.0998C120.137 33.1431 120.576 33.0412 120.949 32.8098C121.33 32.5764 121.625 32.2254 121.789 31.8098L123.529 31.8298ZM117.249 29.1298H121.779C121.793 28.83 121.746 28.5305 121.639 28.2498C121.538 27.9664 121.378 27.7074 121.169 27.4898C120.957 27.2776 120.706 27.1079 120.429 26.9898C120.153 26.8773 119.857 26.8229 119.559 26.8298C119.255 26.8302 118.953 26.8879 118.669 26.9998C118.389 27.1165 118.135 27.2863 117.919 27.4998C117.705 27.7135 117.536 27.9676 117.421 28.2475C117.305 28.5273 117.247 28.8273 117.249 29.1298Z" fill="white"/>
<path d="M52.0003 12.7199C52.3922 12.694 52.7851 12.7555 53.1503 12.8999C53.527 13.0364 53.8686 13.2551 54.1503 13.5399C54.4198 13.8245 54.6215 14.1664 54.7403 14.5399C54.8618 14.9104 54.8993 15.3032 54.8503 15.6899C54.8503 17.5899 53.8503 18.6899 52.0403 18.6899H49.8203V12.6899L52.0003 12.7199ZM50.7803 17.8499H51.9003C52.1806 17.8638 52.4605 17.816 52.7203 17.7099C52.9809 17.6091 53.2139 17.4481 53.4003 17.2399C53.5857 17.0312 53.7254 16.7859 53.8103 16.5199C53.8906 16.2544 53.9111 15.9744 53.8703 15.6999C53.9068 15.4248 53.883 15.1449 53.8003 14.8799C53.7198 14.615 53.5795 14.3721 53.3903 14.1699C53.1988 13.9676 52.9672 13.8075 52.7103 13.6999C52.4533 13.5972 52.1766 13.5528 51.9003 13.5699H50.7503L50.7803 17.8499Z" fill="white"/>
<path d="M55.8305 16.4402C55.7976 16.1431 55.8318 15.8424 55.9305 15.5602C56.0214 15.2784 56.1714 15.0193 56.3705 14.8002C56.5722 14.5793 56.8173 14.4023 57.0905 14.2802C57.377 14.1544 57.6876 14.0929 58.0005 14.1002C58.2997 14.1001 58.5958 14.1614 58.8705 14.2802C59.1406 14.4025 59.3824 14.5795 59.5805 14.8002C59.7792 15.0213 59.9322 15.2796 60.0305 15.5602C60.119 15.8446 60.153 16.1432 60.1305 16.4402C60.1572 16.734 60.1231 17.0301 60.0305 17.3102C59.9346 17.5949 59.7815 17.8569 59.5805 18.0802C59.382 18.2979 59.1401 18.4716 58.8705 18.5902C58.5984 18.7181 58.3011 18.783 58.0005 18.7802C57.7032 18.7815 57.4095 18.7166 57.1405 18.5902C56.8678 18.4718 56.6226 18.2981 56.4205 18.0802C56.218 17.8597 56.0677 17.5965 55.9805 17.3102C55.8663 17.035 55.815 16.7377 55.8305 16.4402ZM59.1605 16.4402C59.1605 15.4402 58.7205 14.8902 57.9505 14.8902C57.1805 14.8902 56.7505 15.4602 56.7505 16.4402C56.7505 17.4202 57.1805 18.0002 58.0005 18.0002C58.8205 18.0002 59.2105 17.4302 59.2105 16.4502L59.1605 16.4402Z" fill="white"/>
<path d="M65.7198 18.6899H64.7998L63.8698 15.3699H63.7998L62.8698 18.6899H61.9998L60.7598 14.1899H61.6598L62.4698 17.6199H62.5298L63.4598 14.1899H64.3098L65.2398 17.6199H65.3098L66.1098 14.1899H66.9998L65.7198 18.6899Z" fill="white"/>
<path d="M68 14.1898H68.86V14.8998H68.92C69.0387 14.6464 69.2302 14.4341 69.47 14.2898C69.7096 14.1429 69.9899 14.0764 70.27 14.0998C70.4882 14.0823 70.7075 14.1165 70.91 14.1998C71.1154 14.2765 71.3002 14.3997 71.45 14.5598C71.5996 14.724 71.7121 14.9184 71.78 15.1298C71.825 15.3441 71.825 15.5655 71.78 15.7798V18.6898H70.89V15.9998C70.89 15.2798 70.57 14.9198 69.89 14.9198C69.7399 14.9098 69.5895 14.9337 69.45 14.9898C69.313 15.0455 69.19 15.1309 69.09 15.2398C68.9858 15.3476 68.9072 15.4775 68.86 15.6198C68.8252 15.7644 68.8252 15.9152 68.86 16.0598V18.6898H68V14.1898Z" fill="white"/>
<path d="M73.2402 12.4302H74.1302V18.6902H73.2402V12.4302Z" fill="white"/>
<path d="M75.3695 16.44C75.3367 16.1429 75.3709 15.8422 75.4695 15.56C75.5604 15.2783 75.7105 15.0191 75.9095 14.8C76.1113 14.5791 76.3564 14.4021 76.6295 14.28C76.9006 14.161 77.1935 14.0996 77.4895 14.0996C77.7856 14.0996 78.0784 14.161 78.3495 14.28C78.6227 14.4021 78.8678 14.5791 79.0695 14.8C79.2686 15.0191 79.4186 15.2783 79.5095 15.56C79.6082 15.8422 79.6424 16.1429 79.6095 16.44C79.6391 16.7364 79.6085 17.0357 79.5195 17.32C79.4212 17.6006 79.2683 17.8589 79.0695 18.08C78.8694 18.3003 78.6237 18.4743 78.3495 18.59C78.0809 18.718 77.7871 18.7844 77.4895 18.7844C77.192 18.7844 76.8982 18.718 76.6295 18.59C76.3554 18.4743 76.1097 18.3003 75.9095 18.08C75.7108 17.8589 75.5578 17.6006 75.4595 17.32C75.3705 17.0357 75.3399 16.7364 75.3695 16.44ZM78.6995 16.44C78.6995 15.44 78.2595 14.89 77.4895 14.89C76.7195 14.89 76.2795 15.46 76.2795 16.44C76.2795 17.42 76.7195 18 77.4895 18C78.2595 18 78.6995 17.43 78.6995 16.45V16.44Z" fill="white"/>
<path d="M80.5508 17.4201C80.5508 16.6101 81.1508 16.1401 82.2208 16.0701L83.4408 16.0001V15.6101C83.4408 15.1401 83.1308 14.8701 82.5208 14.8701C81.9108 14.8701 81.6808 15.0501 81.5808 15.3701H80.7208C80.8108 14.6001 81.5408 14.1001 82.5608 14.1001C83.5808 14.1001 84.3308 14.6601 84.3308 15.6101V18.6901H83.4708V18.0601H83.4008C83.2587 18.2858 83.0583 18.4689 82.8208 18.5901C82.5861 18.7204 82.3185 18.7795 82.0508 18.7601C81.8626 18.7786 81.6727 18.7617 81.4908 18.7101C81.3113 18.6483 81.1462 18.5509 81.0053 18.4237C80.8644 18.2966 80.7506 18.1423 80.6708 17.9701C80.5911 17.7977 80.5501 17.61 80.5508 17.4201ZM83.4408 17.0001V16.6301L82.3408 16.7001C81.7208 16.7001 81.4408 16.9501 81.4408 17.3501C81.4408 17.7501 81.7908 17.9901 82.2808 17.9901C82.4185 18.0231 82.5617 18.0265 82.7008 18.0001C82.8357 17.9576 82.9613 17.8897 83.0708 17.8001C83.1815 17.7114 83.2704 17.5985 83.3308 17.4701C83.4053 17.3248 83.4431 17.1634 83.4408 17.0001Z" fill="white"/>
<path d="M85.5 16.4402C85.5 15.0102 86.23 14.1102 87.37 14.1102C87.6502 14.1003 87.9275 14.1696 88.17 14.3102C88.4172 14.4454 88.619 14.6507 88.75 14.9002H88.81V12.4302H89.7V18.6902H88.85V18.0002H88.78C88.6382 18.2484 88.4306 18.4526 88.18 18.5902C87.9344 18.7313 87.6528 18.7973 87.37 18.7802C86.22 18.7602 85.5 17.8602 85.5 16.4402ZM86.41 16.4402C86.41 17.3902 86.86 17.9702 87.62 17.9702C88.38 17.9702 88.83 17.3802 88.83 16.4402C88.83 15.5002 88.36 14.9102 87.62 14.9102C86.88 14.9102 86.41 15.4902 86.41 16.4402Z" fill="white"/>
<path d="M93.3793 16.4401C93.3464 16.143 93.3806 15.8423 93.4793 15.5601C93.5702 15.2783 93.7202 15.0192 93.9193 14.8001C94.1211 14.5792 94.3662 14.4022 94.6393 14.2801C94.9102 14.1604 95.2032 14.0991 95.4993 14.1001C95.7986 14.1 96.0946 14.1613 96.3693 14.2801C96.6394 14.4024 96.8812 14.5795 97.0793 14.8001C97.278 15.0212 97.431 15.2795 97.5293 15.5601C97.6179 15.8445 97.6518 16.1431 97.6293 16.4401C97.651 16.7338 97.6171 17.029 97.5293 17.3101C97.4334 17.5948 97.2803 17.8569 97.0793 18.0801C96.8808 18.2978 96.639 18.4715 96.3693 18.5901C96.0973 18.718 95.7999 18.783 95.4993 18.7801C95.2021 18.7815 94.9083 18.7166 94.6393 18.5901C94.3666 18.4717 94.1215 18.2981 93.9193 18.0801C93.7169 17.8596 93.5665 17.5965 93.4793 17.3101C93.3821 17.0311 93.348 16.7339 93.3793 16.4401ZM96.7093 16.4401C96.7093 15.4401 96.2693 14.8901 95.4993 14.8901C94.7293 14.8901 94.2993 15.4601 94.2993 16.4401C94.2993 17.4201 94.7293 18.0001 95.4993 18.0001C96.2693 18.0001 96.7093 17.4201 96.7093 16.4401Z" fill="white"/>
<path d="M98.8193 14.1902H99.6693V14.9002H99.7393C99.8535 14.6455 100.043 14.432 100.283 14.2889C100.523 14.1458 100.801 14.0799 101.079 14.1002C101.301 14.0837 101.523 14.1179 101.729 14.2002C101.932 14.2773 102.113 14.4006 102.259 14.5602C102.416 14.7193 102.529 14.9154 102.589 15.1302C102.639 15.344 102.639 15.5664 102.589 15.7802V18.6902H101.699V16.0002C101.699 15.2802 101.389 14.9202 100.699 14.9202C100.552 14.9076 100.405 14.9316 100.269 14.9902C100.129 15.0461 100.003 15.1313 99.8993 15.2402C99.7985 15.3506 99.7203 15.4797 99.6693 15.6202C99.6391 15.7654 99.6391 15.9151 99.6693 16.0602V18.6902H98.7793L98.8193 14.1902Z" fill="white"/>
<path d="M107.661 13.0698V14.2098H108.661V14.9998H107.661V17.3098C107.661 17.7798 107.861 17.9898 108.301 17.9898H108.641V18.7298C108.481 18.7397 108.32 18.7397 108.161 18.7298C107.161 18.7298 106.771 18.3798 106.771 17.5098V14.9998H106.061V14.2498H106.771V13.0698H107.661Z" fill="white"/>
<path d="M109.851 12.4302H110.731V14.9102H110.801C110.92 14.6503 111.117 14.4334 111.363 14.2886C111.61 14.1438 111.895 14.078 112.181 14.1002C112.399 14.0927 112.617 14.1301 112.821 14.2102C113.022 14.2935 113.203 14.4198 113.351 14.5802C113.5 14.7387 113.61 14.9307 113.671 15.1402C113.74 15.346 113.76 15.5651 113.731 15.7802V18.6902H112.841V16.0002C112.841 15.2802 112.501 14.9202 111.841 14.9202C111.688 14.9092 111.535 14.9297 111.391 14.9802C111.243 15.0318 111.109 15.1175 111.001 15.2302C110.893 15.337 110.811 15.4669 110.761 15.6102C110.711 15.7546 110.69 15.9077 110.701 16.0602V18.6902H109.811L109.851 12.4302Z" fill="white"/>
<path d="M118.911 17.4701C118.791 17.8808 118.528 18.2353 118.171 18.4701C117.814 18.7071 117.387 18.8131 116.961 18.7701C116.662 18.7793 116.364 18.7212 116.091 18.6001C115.828 18.4797 115.595 18.3039 115.406 18.0846C115.218 17.8654 115.08 17.608 115.001 17.3301C114.912 17.0457 114.888 16.745 114.931 16.4501C114.888 16.1553 114.912 15.8546 115.001 15.5701C115.09 15.2869 115.236 15.0248 115.431 14.8001C115.627 14.5783 115.869 14.4011 116.14 14.2804C116.411 14.1596 116.704 14.0982 117.001 14.1001C118.261 14.1001 119.001 14.9601 119.001 16.3701V16.6801H115.821V16.7301C115.809 16.8966 115.833 17.0637 115.891 17.2201C115.943 17.3763 116.028 17.5195 116.14 17.6402C116.252 17.7609 116.389 17.8563 116.541 17.9201C116.692 17.9876 116.855 18.0217 117.021 18.0201C117.234 18.0512 117.451 18.0126 117.641 17.9101C117.832 17.8124 117.989 17.659 118.091 17.4701H118.911ZM115.781 16.0001H118.061C118.071 15.8509 118.051 15.7011 118.001 15.5601C117.95 15.4169 117.868 15.287 117.761 15.1801C117.657 15.0683 117.531 14.9797 117.391 14.9201C117.252 14.8606 117.101 14.8333 116.951 14.8401C116.797 14.8367 116.644 14.8639 116.501 14.9201C116.361 14.982 116.233 15.0665 116.121 15.1701C116.011 15.2817 115.926 15.4144 115.871 15.5601C115.811 15.6992 115.781 15.8489 115.781 16.0001Z" fill="white"/>
</g>
<defs>
<clipPath id="clip0_9903_1528">
<rect width="148" height="48" fill="white"/>
</clipPath>
</defs>
</svg>
