<svg xmlns="http://www.w3.org/2000/svg" viewBox="0 0 26.9 32"><path fill="currentColor" d="M26.31 24.91A17.13 17.13 0 0 1 24.6 28a15.71 15.71 0 0 1-2.22 2.68A4.4 4.4 0 0 1 19.54 32a7.3 7.3 0 0 1-2.62-.63 7.62 7.62 0 0 0-2.83-.64 7.74 7.74 0 0 0-2.9.64 8.76 8.76 0 0 1-2.5.67 4.1 4.1 0 0 1-2.91-1.29A16.93 16.93 0 0 1 3.47 28 19.3 19.3 0 0 1 1 23.08a17.73 17.73 0 0 1-1-5.81 10.55 10.55 0 0 1 1.38-5.54 8 8 0 0 1 6.85-4.05 9.27 9.27 0 0 1 3 .71 9.8 9.8 0 0 0 2.41.71 14.94 14.94 0 0 0 2.68-.83A9.07 9.07 0 0 1 20 7.62a7.76 7.76 0 0 1 6.06 3.2 6.73 6.73 0 0 0-3.58 6.12A6.83 6.83 0 0 0 24.69 22a7.79 7.79 0 0 0 2.21 1.46c-.21.47-.39 1-.59 1.42zM20.13.63a6.85 6.85 0 0 1-1.75 4.48 6 6 0 0 1-5 2.45 5.86 5.86 0 0 1 0-.61 7 7 0 0 1 1.86-4.52 7.26 7.26 0 0 1 2.25-1.7A6.62 6.62 0 0 1 20.07 0a2.32 2.32 0 0 1 .06.63z"/></svg>
