<svg xmlns="http://www.w3.org/2000/svg" viewBox="0 0 26 18"><path fill="currentColor" d="M22.29,2.84A10.58,10.58,0,0,0,16.45.76l-.31.3a13.88,13.88,0,0,1,5.25,2.53,19.67,19.67,0,0,0-8.37-2,19.67,19.67,0,0,0-8.37,2A13.88,13.88,0,0,1,9.88,1.06L9.56.76A10.58,10.58,0,0,0,3.72,2.84,25.1,25.1,0,0,0,.63,14.4a9,9,0,0,0,6.6,2.84S8,16.37,8.58,15.6a6.8,6.8,0,0,1-3.76-2.32A14.22,14.22,0,0,0,13,15.62a14.22,14.22,0,0,0,8.18-2.34,6.8,6.8,0,0,1-3.76,2.32c.57.77,1.35,1.65,1.35,1.65a9,9,0,0,0,6.6-2.84A25.09,25.09,0,0,0,22.29,2.84ZM9.2,12.41A2.2,2.2,0,0,1,9.2,8h0a2.2,2.2,0,0,1,0,4.4Zm7.62,0a2.2,2.2,0,0,1,0-4.4h0a2.2,2.2,0,0,1,0,4.41Z"/></svg>
