<svg xmlns="http://www.w3.org/2000/svg" viewBox="0 0 32 32"><path fill="currentColor" d="M16 0a16 16 0 1 0 16 16A16 16 0 0 0 16 0zm10.43 7.55a13.38 13.38 0 0 1 3 8 22.6 22.6 0 0 0-9-.09c-.48-1.12-1-2.2-1.48-3.21a26.68 26.68 0 0 0 7.48-4.7zm-1.81-1.84A23.78 23.78 0 0 1 17.75 10a62.59 62.59 0 0 0-4.55-7.14 13.57 13.57 0 0 1 2.8-.29 13.35 13.35 0 0 1 8.62 3.14zm-14-2a60.23 60.23 0 0 1 4.68 7.22 42.76 42.76 0 0 1-12.36 1.94 13.5 13.5 0 0 1 7.67-9.17zm-8 11.75h.08a46.59 46.59 0 0 0 8.14-.75 39.89 39.89 0 0 0 5.7-1.47c.47.92.93 1.9 1.38 2.93a24 24 0 0 0-6.28 3.11 28.44 28.44 0 0 0-5.84 5.4A13.35 13.35 0 0 1 2.57 16l.01-.55zm5 11a25.86 25.86 0 0 1 5.52-5.13 21.88 21.88 0 0 1 5.72-2.82 49.37 49.37 0 0 1 2.7 9.7A13.21 13.21 0 0 1 16 29.43a13.35 13.35 0 0 1-8.39-2.96zm16.31.37a53.48 53.48 0 0 0-2.53-8.92 20.31 20.31 0 0 1 7.86.26 13.46 13.46 0 0 1-5.34 8.67z"/></svg>
