<svg width="36" height="36" viewBox="0 0 36 36" fill="none" xmlns="http://www.w3.org/2000/svg">
<path d="M18 31.5C19.7728 31.5 21.5283 31.1508 23.1662 30.4724C24.8041 29.7939 26.2923 28.7995 27.5459 27.5459C28.7995 26.2923 29.7939 24.8041 30.4724 23.1662C31.1508 21.5283 31.5 19.7728 31.5 18C31.5 16.2272 31.1508 14.4717 30.4724 12.8338C29.7939 11.1959 28.7995 9.70765 27.5459 8.45406C26.2923 7.20047 24.8041 6.20606 23.1662 5.52763C21.5283 4.84919 19.7728 4.5 18 4.5M18 31.5C16.2272 31.5 14.4717 31.1508 12.8338 30.4724C11.1959 29.7939 9.70765 28.7995 8.45406 27.5459C7.20047 26.2923 6.20607 24.8041 5.52763 23.1662C4.84919 21.5283 4.5 19.7728 4.5 18C4.5 16.2272 4.84919 14.4717 5.52763 12.8338C6.20607 11.1959 7.20047 9.70765 8.45406 8.45406C9.70765 7.20047 11.1959 6.20606 12.8338 5.52763C14.4717 4.84919 16.2272 4.5 18 4.5M18 31.5C22.1415 31.5 23.9115 23.7555 23.9115 18C23.9115 12.2445 22.1415 4.5 18 4.5M18 31.5C13.8585 31.5 12.0885 23.7555 12.0885 18C12.0885 12.2445 13.8585 4.5 18 4.5M5.25 13.5H30.75M5.25 22.5H30.75" stroke="black" stroke-width="1.5" stroke-linecap="round" stroke-linejoin="round"/>
</svg>
