<svg xmlns="http://www.w3.org/2000/svg" fill="none" viewBox="0 0 61 61"><path fill="#000" d="M33.58.5c3.37 0 5.09.03 6.57.07l.58.02 2.13.09c3.2.15 5.37.65 7.29 1.4 1.98.76 3.64 1.79 5.31 3.45a14.8 14.8 0 0 1 3.46 5.32 22.16 22.16 0 0 1 1.4 7.28l.09 2.14.01.58c.05 1.48.07 3.2.07 6.57v6.16c.01 2.2-.01 4.38-.06 6.57l-.02.58-.1 2.14c-.14 3.2-.65 5.37-1.39 7.28-.75 2-1.93 3.82-3.46 5.32a14.75 14.75 0 0 1-5.31 3.46 22.16 22.16 0 0 1-7.29 1.4l-2.13.08-.58.02c-1.48.04-3.2.06-6.57.07h-6.17c-2.18 0-4.37-.02-6.56-.07l-.58-.02c-.72-.02-1.43-.05-2.14-.09a22.2 22.2 0 0 1-7.28-1.4c-2-.75-3.82-1.93-5.32-3.45a14.71 14.71 0 0 1-3.46-5.32 22.16 22.16 0 0 1-1.4-7.28L.6 40.73l-.02-.58C.52 37.96.5 35.77.5 33.58v-6.16c-.01-2.2.01-4.38.06-6.57l.02-.58.1-2.14c.14-3.19.65-5.37 1.39-7.28.75-2 1.94-3.82 3.47-5.32a14.7 14.7 0 0 1 5.3-3.45 22.18 22.18 0 0 1 7.29-1.4l2.14-.09.58-.02A237 237 0 0 1 27.4.5h6.17Zm-3.08 15a15 15 0 1 0 0 30 15 15 0 0 0 0-30Zm0 6a9 9 0 1 1 0 18 9 9 0 0 1 0-18M46.25 11a3.75 3.75 0 1 0 0 7.5 3.75 3.75 0 0 0 0-7.5Z"/></svg>