<svg xmlns="http://www.w3.org/2000/svg" fill="none" viewBox="0 0 61 61"><path fill="#000" d="M.5 4.8C.5 2.42 2.47.5 4.9.5h51.2c2.43 0 4.4 1.92 4.4 4.3v51.4c0 2.38-1.97 4.3-4.4 4.3H4.9a4.35 4.35 0 0 1-4.4-4.3V4.8Zm18.53 45.93v-27.1h-9v27.1h9Zm-4.5-30.8c3.14 0 5.1-2.07 5.1-4.68-.06-2.66-1.95-4.68-5.04-4.68-3.08 0-5.1 2.03-5.1 4.68 0 2.6 1.96 4.68 4.98 4.68h.06Zm18.4 30.8V35.6c0-.81.07-1.62.3-2.2.66-1.62 2.14-3.3 4.63-3.3 3.26 0 4.56 2.49 4.56 6.13v14.5h9V35.19c0-8.33-4.44-12.2-10.36-12.2-4.78 0-6.92 2.63-8.12 4.48v.09h-.06l.06-.1v-3.83h-9c.11 2.55 0 27.1 0 27.1h9Z"/></svg>