<svg xmlns="http://www.w3.org/2000/svg" viewBox="0 0 17 20"><path fill="currentColor" d="M14.88,4.28,14.5,4a5.46,5.46,0,0,1-1-.86A4.81,4.81,0,0,1,12.39.84h0a3,3,0,0,1,0-.84H9V13.28c0,.18,0,.35,0,.53,0,0,0,0,0,.06a.15.15,0,0,1,0,0H9a3,3,0,0,1-.44,1.34,2.89,2.89,0,0,1-1,1,2.77,2.77,0,0,1-1.39.38,2.92,2.92,0,0,1,0-5.83,2.77,2.77,0,0,1,.87.14V7.41a6.14,6.14,0,0,0-2.56.2A6.22,6.22,0,0,0,2.19,8.85,6.72,6.72,0,0,0,.75,10.67,6.38,6.38,0,0,0,0,13.55a6.93,6.93,0,0,0,.36,2.28h0a6.76,6.76,0,0,0,.91,1.7,6.9,6.9,0,0,0,1.46,1.4h0A6.21,6.21,0,0,0,6.19,20a6,6,0,0,0,2.55-.58,6.43,6.43,0,0,0,2.07-1.59,6.63,6.63,0,0,0,1.13-1.91,7.29,7.29,0,0,0,.41-2.19v-7l.59.39a7.71,7.71,0,0,0,2,.85A11.35,11.35,0,0,0,17,8.21V4.8A4.3,4.3,0,0,1,14.88,4.28Z"/></svg>
