<svg xmlns="http://www.w3.org/2000/svg" viewBox="0 0 32 26"><path fill="currentColor" d="M27.8 4.2a7.52 7.52 0 0 0 3-3.6 10.77 10.77 0 0 1-4.2 1.6A7.18 7.18 0 0 0 21.8 0a6.49 6.49 0 0 0-6.4 6.6 4.4 4.4 0 0 0 .2 1.6 19.64 19.64 0 0 1-13.4-7 6.64 6.64 0 0 0-1 3.2 6.65 6.65 0 0 0 3 5.6 7.41 7.41 0 0 1-3-.8 6.85 6.85 0 0 0 5.4 6.6H4.8a2.54 2.54 0 0 1-1.2-.2 6.62 6.62 0 0 0 6 4.6 13 13 0 0 1-8 2.8H0a19 19 0 0 0 10 3c12 0 18.6-10 18.6-18.6v-.8A27.25 27.25 0 0 0 32 3.2a41.87 41.87 0 0 1-4.2 1z"/></svg>
