<svg width="37" height="156" viewBox="0 0 37 156" fill="none" xmlns="http://www.w3.org/2000/svg">
<path d="M23.8975 123.447C23.8975 128.529 23.2445 132.987 25.2335 137.96C26.6937 141.611 28.7896 145.09 30.486 148.483" stroke="#FFC2A8" stroke-width="3" stroke-linecap="round"/>
<path d="M1.82617 146.836C2.24911 146.889 2.7814 147.458 3.18048 147.641C4.93292 148.447 6.6906 149.184 8.5245 149.783C12.6518 151.13 16.6396 152.197 20.8963 153.095C24.9238 153.946 30.6676 154.652 34.4394 152.766" stroke="#FFC2A8" stroke-width="3" stroke-linecap="round"/>
<path d="M29.3336 151.264C27.6871 146.325 22.2962 141.481 19.707 136.769C15.8259 129.707 12.0268 123.212 9.96969 115.358C6.74892 103.061 8.30351 88.4371 12.404 76.5749C13.7285 72.7432 15.7473 66.6163 20.8135 66.6163C26.0008 66.6163 34.5061 68.5489 35.2534 74.5279C35.8254 79.1034 32.5907 79.2597 29.7209 78.622C23.3289 77.2015 18.9414 71.5674 14.617 66.8376C7.07698 58.5907 6.843 49.6279 5.93092 39.2302C5.09483 29.6988 6.74095 19.5663 9.19513 10.295C9.95381 7.42885 12.404 4.72762 12.404 1.8855" stroke="#FFC2A8" stroke-width="3" stroke-linecap="round"/>
<path d="M24.7066 123.935C24.9869 125.431 36.2697 153.506 31.8435 152.701C28.2231 152.043 24.8869 149.363 21.3566 148.186C15.2602 146.154 8.77234 145.438 2.42188 144.909" stroke="#FFC2A8" stroke-width="3" stroke-linecap="round"/>
</svg>
