<svg width="235" height="164" viewBox="0 0 235 164" fill="none" xmlns="http://www.w3.org/2000/svg">
<path d="M221.806 2.92871C219.049 19.4744 204.498 42.9146 191.816 53.6458C186.237 58.3669 195.454 48.1286 195.869 47.7404C202.214 41.8042 207.934 35.82 213.932 29.561C218.968 24.3063 226.85 17.6732 229.217 10.571C231.553 3.5638 224.416 24.7335 224.006 32.1084C223.007 50.0992 227.558 67.0946 232.228 84.215" stroke="#FFC2A8" stroke-width="4.5" stroke-linecap="round"/>
<path d="M2.96094 144.659C31.1303 150.696 54.6557 162.553 84.942 160.87C124.016 158.699 161.269 116.367 184.524 89.0789C201.335 69.3516 219.724 40.2399 219.724 13.3506" stroke="#FFC2A8" stroke-width="4.5" stroke-linecap="round"/>
</svg>
