<svg width="65" height="116" viewBox="0 0 65 116" fill="none" xmlns="http://www.w3.org/2000/svg">
<path d="M1.89062 1.84229C2.22258 4.49791 10.1241 3.11046 12.0862 3.44445C22.1967 5.16538 33.2633 7.53254 42.0904 12.9846C61.173 24.7709 65.5043 51.6894 61.4621 71.9007C59.4594 81.9143 51.418 87.4075 44.1296 93.6027C39.7797 97.3001 34.9803 102.758 30.0014 105.473C26.6882 107.281 25.6565 111.056 23.1557 113.557C22.7466 113.966 25.4151 109.466 26.2873 108.459C30.6612 103.412 33.0642 97.4298 35.2448 91.1995C37.4334 84.9463 34.2212 90.0119 32.4774 92.7288C31.0835 94.9008 13.7737 117.361 24.4666 113.266C30.2087 111.067 36.3096 108.022 42.5274 108.022C43.333 108.022 49.6095 106.347 48.7904 105.692C43.0101 101.068 31.1471 107.918 25.4862 109.333" stroke="#FFC2A8" stroke-width="3" stroke-linecap="round"/>
</svg>
