<svg width="55" height="170" viewBox="0 0 55 170" fill="none" xmlns="http://www.w3.org/2000/svg">
<path d="M40.8025 3.8049C34.7537 3.13281 29.2354 -0.050714 23.307 3.42456C3.4773 15.0489 3.0875 44.5391 8.09351 64.3546C12.4454 81.581 24.0576 95.5415 43.2367 96.9114C47.0782 97.1858 57.0437 94.2947 51.7562 88.6962C41.9818 78.3467 20.0333 88.4964 12.1251 97.0636C-7.58086 118.412 5.84402 146.145 20.2643 165.372" stroke="#FFC2A8" stroke-width="3" stroke-linecap="round"/>
<path d="M19.5524 165.077C16.361 162.122 10.432 158.617 6.01346 158.491C2.7697 158.398 9.25386 162.028 10.3313 162.736C13.0108 164.494 18.1819 168.084 21.5284 167.712C23.0692 167.541 22.9298 162.802 23.175 161.821C23.9479 158.729 24.8216 155.47 24.8216 152.27C24.8216 151.935 24.3524 148.714 23.6507 149.416C20.6635 152.403 20.268 160.296 18.8938 164.419" stroke="#FFC2A8" stroke-width="3" stroke-linecap="round"/>
</svg>
